# xmcd
#
# Track frame offsets: 
#        150
#        14648
#        37724
#        56641
#        71873
#        85825
#        99611
#        124682
#        143898
#        158337
#        173186
#        198524
#        212891
#        238082
#
# Disc length: 4082 seconds
#
# Revision: 4
# Processed by: cddbd v1.5.2PL0 Copyright (c) Steve Scherf et al.
# Submitted via: ExactAudioCopyFreeDBPlugin 1.0
#
DISCID=c20ff00e
DTITLE=Al Green - The Immortal Soul of Al Green [Hi Records box set]
DYEAR=2003
DGENRE=Soul
TTITLE0=I'm Still in Love with You
TTITLE1=Love and Happiness
TTITLE2=Simply Beautiful
TTITLE3=Oh, Pretty Woman
TTITLE4=Look What You Done for Me
TTITLE5=Call Me (Come Back Home)
TTITLE6=Funny How Time Slips Away
TTITLE7=Here I Am (Come and Take Me)
TTITLE8=I'm So Lonesome I Could Cry
TTITLE9=You Ought to Be with Me
TTITLE10=Jesus is Waiting
TTITLE11=Livin' for You
TTITLE12=Let's Get Married
TTITLE13=Beware (full length version)
EXTD=
EXTT0=
EXTT1=
EXTT2=
EXTT3=
EXTT4=
EXTT5=
EXTT6=
EXTT7=
EXTT8=
EXTT9=
EXTT10=
EXTT11=
EXTT12=
EXTT13=
PLAYORDER=
